<?xml version="1.0" encoding="UTF-8" standalone="no"?>
<!DOCTYPE svg PUBLIC "-//W3C//DTD SVG 1.1//EN"
 "http://www.w3.org/Graphics/SVG/1.1/DTD/svg11.dtd">
<!-- Generated by graphviz version 12.0.0 (0)
 -->
<!-- Title: TD Pages: 1 -->
<svg width="432pt" height="69pt"
 viewBox="0.00 0.00 432.00 68.50" xmlns="http://www.w3.org/2000/svg" xmlns:xlink="http://www.w3.org/1999/xlink">
<g id="graph0" class="graph" transform="scale(0.388123 0.388123) rotate(0) translate(4 172.5)">
<title>TD</title>
<polygon fill="white" stroke="none" points="-4,4 -4,-172.5 1109.05,-172.5 1109.05,4 -4,4"/>
<text text-anchor="middle" x="552.53" y="-7.2" font-family="Times New Roman,serif" font-size="14.00">IDNGGBALOVRLCN</text>
<!-- IDNGGDBTTOTLCN -->
<g id="node1" class="node">
<title>IDNGGDBTTOTLCN</title>
<g id="a_node1"><a xlink:title="General_Government_Debt_Stock_(Millions_of_Local_Currency)&#10;FRML &lt;IDENT&gt; IDNGGDBTTOTLCN = IDNGGDBTTOTLCN(&#45;1)&#45;IDNGGBALOVRLCN+IDNGGDBTVALTCN $">
<polygon fill="#63b8ff" stroke="black" points="1105.05,-168.5 602.95,-168.5 602.95,-132.5 1105.05,-132.5 1105.05,-168.5"/>
<text text-anchor="start" x="608.75" y="-145.45" font-family="Times New Roman,serif" font-size="14.00" fill="blue">IDNGGDBTTOTLCN:General_Government_Debt_Stock_(Millions_of_Local_Currency)</text>
</a>
</g>
</g>
<!-- IDNGGREVTOTLCN -->
<g id="node2" class="node">
<title>IDNGGREVTOTLCN</title>
<g id="a_node2"><a xlink:title="Total_Revenue_(and_Grants)&#10;FRML &lt;IDENT&gt; IDNGGREVTOTLCN = IDNGGREVOTHRCN+(IDNGGREVTAXTCN+IDNGGREVNONTCN+IDNGGREVGRNTCN+IDNGGREVEMISCN+IDNGGREVELECN)+(IDNINSU+IDNCOFU)*IDNPAYOUTCN $">
<polygon fill="#63b8ff" stroke="black" points="298.85,-141.5 0,-141.5 0,-105.5 298.85,-105.5 298.85,-141.5"/>
<text text-anchor="start" x="5.8" y="-118.45" font-family="Times New Roman,serif" font-size="14.00" fill="blue">IDNGGREVTOTLCN:Total_Revenue_(and_Grants)</text>
</a>
</g>
</g>
<!-- IDNGGBALOVRLCN -->
<g id="node6" class="node">
<title>IDNGGBALOVRLCN</title>
<g id="a_node6"><a xlink:title="Overall_Balance&#10;FRML &lt;IDENT&gt; IDNGGBALOVRLCN = (IDNGGREVTOTLCN&#45;IDNGGEXPTOTLCN) $">
<polygon fill="red" stroke="black" points="566.95,-114.5 334.85,-114.5 334.85,-78.5 566.95,-78.5 566.95,-114.5"/>
<text text-anchor="start" x="340.65" y="-91.45" font-family="Times New Roman,serif" font-size="14.00" fill="blue">IDNGGBALOVRLCN:Overall_Balance</text>
</a>
</g>
</g>
<!-- IDNGGREVTOTLCN&#45;&gt;IDNGGBALOVRLCN -->
<g id="edge5" class="edge">
<title>IDNGGREVTOTLCN&#45;&gt;IDNGGBALOVRLCN</title>
<g id="a_edge5"><a xlink:href="bogus" xlink:title=" IDNGGREVTOTLCN &#45;&gt; IDNGGBALOVRLCN Min. att. 0% &#160;max: 0%">
<path fill="none" stroke="black" d="M299.29,-110.08C307.37,-109.35 315.45,-108.62 323.45,-107.9"/>
<polygon fill="black" stroke="black" points="323.53,-111.41 333.17,-107.02 322.9,-104.44 323.53,-111.41"/>
</a>
</g>
</g>
<!-- IDNGGBALOVRLCD -->
<g id="node3" class="node">
<title>IDNGGBALOVRLCD</title>
<g id="a_node3"><a xlink:title="IDNGGBALOVRLCD&#10;FRML &lt;IDENT&gt; IDNGGBALOVRLCD = IDNGGBALOVRLCN/IDNPANUSATLS $">
<polygon fill="#63b8ff" stroke="black" points="924.68,-114.5 783.33,-114.5 783.33,-78.5 924.68,-78.5 924.68,-114.5"/>
<text text-anchor="start" x="789.13" y="-91.45" font-family="Times New Roman,serif" font-size="14.00" fill="blue">IDNGGBALOVRLCD:</text>
</a>
</g>
</g>
<!-- IDNGGEXPTOTLCN -->
<g id="node4" class="node">
<title>IDNGGEXPTOTLCN</title>
<g id="a_node4"><a xlink:title="Total_Expenditure&#10;FRML &lt;IDENT&gt; IDNGGEXPTOTLCN = IDNGGEXPOTHRCN+(IDNGGEXPWAGECN+IDNGGEXPGNFSCN+IDNGGEXPINTPCN+IDNGGEXPTRNSCN+IDNGGEXPCAPTCN+IDNHEAPCN+IDNDISPREPCN+IDNDISPREPCNI+IDNDISPREPCNC) $">
<polygon fill="#63b8ff" stroke="black" points="268.48,-87.5 30.38,-87.5 30.38,-51.5 268.48,-51.5 268.48,-87.5"/>
<text text-anchor="start" x="36.18" y="-64.45" font-family="Times New Roman,serif" font-size="14.00" fill="blue">IDNGGEXPTOTLCN:Total_Expenditure</text>
</a>
</g>
</g>
<!-- IDNGGEXPTOTLCN&#45;&gt;IDNGGBALOVRLCN -->
<g id="edge1" class="edge">
<title>IDNGGEXPTOTLCN&#45;&gt;IDNGGBALOVRLCN</title>
<g id="a_edge1"><a xlink:href="bogus" xlink:title=" IDNGGEXPTOTLCN &#45;&gt; IDNGGBALOVRLCN Min. att. 0% &#160;max: 0%">
<path fill="none" stroke="black" d="M268.79,-80.17C286.57,-81.77 304.98,-83.43 322.94,-85.05"/>
<polygon fill="black" stroke="black" points="322.57,-88.53 332.85,-85.95 323.2,-81.56 322.57,-88.53"/>
</a>
</g>
</g>
<!-- IDNGGBALCYCLCN -->
<g id="node5" class="node">
<title>IDNGGBALCYCLCN</title>
<g id="a_node5"><a xlink:title="IDNGGBALCYCLCN&#10;FRML &lt;IDENT&gt; IDNGGBALCYCLCN = IDNGGBALOVRLCN&#45;IDNGGBALSTRLCN $">
<polygon fill="#63b8ff" stroke="black" points="924.3,-60.5 783.7,-60.5 783.7,-24.5 924.3,-24.5 924.3,-60.5"/>
<text text-anchor="start" x="789.5" y="-37.45" font-family="Times New Roman,serif" font-size="14.00" fill="blue">IDNGGBALCYCLCN:</text>
</a>
</g>
</g>
<!-- IDNGGBALOVRLCN&#45;&gt;IDNGGDBTTOTLCN -->
<g id="edge3" class="edge">
<title>IDNGGBALOVRLCN&#45;&gt;IDNGGDBTTOTLCN</title>
<g id="a_edge3"><a xlink:href="bogus" xlink:title=" IDNGGBALOVRLCN &#45;&gt; IDNGGDBTTOTLCN Min. att. 0% &#160;max: 0%">
<path fill="none" stroke="black" d="M549.65,-114.99C567.35,-118.05 585.68,-121.03 602.95,-123.5 620.49,-126.01 638.75,-128.4 657.06,-130.66"/>
<polygon fill="black" stroke="black" points="656.62,-134.13 666.97,-131.86 657.46,-127.18 656.62,-134.13"/>
</a>
</g>
</g>
<!-- IDNGGBALOVRLCN&#45;&gt;IDNGGBALOVRLCD -->
<g id="edge2" class="edge">
<title>IDNGGBALOVRLCN&#45;&gt;IDNGGBALOVRLCD</title>
<g id="a_edge2"><a xlink:href="bogus" xlink:title=" IDNGGBALOVRLCN &#45;&gt; IDNGGBALOVRLCD Min. att. 0% &#160;max: 0%">
<path fill="none" stroke="black" d="M567.38,-96.5C632.68,-96.5 712.77,-96.5 771.5,-96.5"/>
<polygon fill="black" stroke="black" points="771.43,-100 781.43,-96.5 771.43,-93 771.43,-100"/>
</a>
</g>
</g>
<!-- IDNGGBALOVRLCN&#45;&gt;IDNGGBALCYCLCN -->
<g id="edge4" class="edge">
<title>IDNGGBALOVRLCN&#45;&gt;IDNGGBALCYCLCN</title>
<g id="a_edge4"><a xlink:href="bogus" xlink:title=" IDNGGBALOVRLCN &#45;&gt; IDNGGBALCYCLCN Min. att. 0% &#160;max: 0%">
<path fill="none" stroke="black" d="M549.65,-78.01C567.35,-74.95 585.68,-71.97 602.95,-69.5 659.29,-61.43 723.08,-54.58 772.13,-49.8"/>
<polygon fill="black" stroke="black" points="772.19,-53.31 781.81,-48.86 771.52,-46.34 772.19,-53.31"/>
</a>
</g>
</g>
</g>
</svg>
